<?xml version="1.0" encoding="utf-8"?>
<!-- Generator: Adobe Illustrator 22.0.1, SVG Export Plug-In . SVG Version: 6.00 Build 0)  -->
<svg version="1.1" id="Capa_1" xmlns="http://www.w3.org/2000/svg" xmlns:xlink="http://www.w3.org/1999/xlink" x="0px" y="0px"
	 viewBox="0 0 200 200" style="enable-background:new 0 0 200 200;" xml:space="preserve">
<style type="text/css">
	.st0{fill:#FFFFFF;}
</style>
<g>
	<path class="st0" d="M97.6,124.8c0.1,4.5-1.1,8.3-3.5,11.5c-1.6,2.2-3.8,3.7-6.6,4.6c-1.6,0.5-3.3,0.7-5.4,0.7
		c-3.8,0-6.9-0.9-9.4-2.8c-2.1-1.6-3.7-3.6-5-6.3c-1.2-2.6-1.9-5.7-2.1-9.1l9.2-0.7c0.4,3.7,1.4,6.5,3,8.1c1.2,1.3,2.5,1.9,4,1.8
		c2.1-0.1,3.8-1.1,5.1-3.1c0.6-1,1-2.4,1-4.3c0-2.7-1.2-5.3-3.6-8c-1.9-1.8-4.8-4.5-8.6-8.1c-3.2-3.1-5.5-5.9-6.8-8.4
		c-1.4-2.8-2.1-5.8-2.1-9c0-5.8,2-10.3,5.9-13.3c2.4-1.8,5.4-2.7,9-2.7c3.4,0,6.4,0.8,8.9,2.3c1.9,1.2,3.5,2.9,4.6,5
		c1.2,2.2,1.9,4.6,2.1,7.4l-9.3,1.7c-0.3-2.6-1-4.7-2.3-6.1c-0.9-1.1-2.2-1.6-3.9-1.6c-1.8,0-3.1,0.8-4,2.4
		c-0.8,1.3-1.1,2.8-1.1,4.7c0,2.9,1.3,5.9,3.8,9c1,1.2,2.4,2.5,4.3,4.1c2.2,1.9,3.7,3.2,4.5,3.9c2.4,2.4,4.2,4.7,5.5,7.1
		c0.6,1.1,1.1,2.1,1.5,3C97.1,121,97.5,123,97.6,124.8"/>
	<path class="st0" d="M119.3,141.6c-4.2,0-7.8-1.5-10.8-4.4c-3-2.9-4.4-6.5-4.4-10.7V91.8c0-4.2,1.5-7.8,4.5-10.8
		c3-3,6.5-4.4,10.7-4.4c4.2,0,7.8,1.5,10.7,4.5c2.9,3,4.4,6.5,4.4,10.7v7.2h-9.9v-7.4c0-1.5-0.5-2.8-1.6-3.9
		c-1.1-1.1-2.4-1.6-3.9-1.6c-1.5,0-2.8,0.5-3.9,1.6c-1.1,1.1-1.6,2.4-1.6,3.9v34.7c0,1.5,0.5,2.8,1.6,3.9c1,1.1,2.4,1.6,3.9,1.6
		c1.5,0,2.8-0.5,3.9-1.6c1.1-1.1,1.6-2.4,1.6-3.9v-8.8h9.9v8.9c0,4.2-1.5,7.8-4.5,10.7C127,140.1,123.4,141.6,119.3,141.6"/>
	<path class="st0" d="M158.3,57.5L158.3,57.5c-3.4,2.7-4.2,7.6-1.7,11.2c13.3,19.2,16.7,44.5,6.8,67.5
		c-15.3,35.4-56.4,51.8-91.9,36.5C36.1,157.3,19.7,116.2,35,80.7c9.2-21.2,27.6-35.5,48.6-40.4l5.9,19.8c0.6,1.8,1.9,2,3,0.5
		l24.6-35.2c1.1-1.6,0.5-3.4-1.2-4.1L76,5.5c-1.8-0.7-2.8,0.2-2.2,2l5.4,17.9c-25.1,6.3-47,23.7-58.1,49.3
		c-18.8,43.6,1.3,94.2,44.9,113c43.6,18.8,94.2-1.3,113-44.9c12.3-28.5,7.9-59.9-8.7-83.5C167.5,55.4,162.1,54.5,158.3,57.5z"/>
</g>
</svg>
